<?xml version="1.0" standalone="no"?>
<!DOCTYPE svg PUBLIC "-//W3C//DTD SVG 20010904//EN"
 "http://www.w3.org/TR/2001/REC-SVG-20010904/DTD/svg10.dtd">
<svg version="1.0" xmlns="http://www.w3.org/2000/svg"
 width="300.000000pt" height="300.000000pt" viewBox="0 0 300.000000 300.000000"
 preserveAspectRatio="xMidYMid meet">
<metadata>
Created by potrace 1.11, written by Peter Selinger 2001-2013
</metadata>
<g transform="translate(0.000000,300.000000) scale(0.100000,-0.100000)"
fill="#000000" stroke="none">
<path d="M1379 2166 c-2 -2 -33 -7 -69 -11 -106 -11 -260 -52 -340 -92 -76
-37 -181 -130 -207 -183 -17 -34 -35 -82 -39 -100 -2 -8 -6 -31 -9 -50 -20
-103 6 -246 64 -354 15 -28 43 -80 61 -116 43 -83 140 -229 198 -300 128 -155
257 -244 374 -259 52 -6 53 -6 54 -41 17 -421 17 -420 -5 -420 -12 0 -22 -3
-22 -7 -6 -29 -5 -214 1 -223 4 -7 63 -10 176 -8 162 3 169 4 167 23 -1 11 -5
47 -9 80 -4 33 -7 77 -8 97 -1 31 -5 38 -22 38 -17 0 -20 6 -21 43 -1 107 -15
459 -18 477 -3 14 13 33 59 69 97 78 183 173 259 288 185 282 235 557 139 762
-36 77 -129 168 -214 209 -111 53 -220 74 -404 78 -89 2 -163 2 -165 0z"/>
</g>
</svg>
